<svg height="512" viewBox="0 0 64 64" width="512" xmlns="http://www.w3.org/2000/svg"><g id="Money"><path d="m17.821 11.526h40v22h-40z" fill="#5eac24" transform="matrix(.866 .5 -.5 .866 16.33 -15.892)"/><path d="m54.579 19.5a7 7 0 0 0 2.562 9.562l3.5-6.062-3.118-1.8z" fill="#91dc5a"/><path d="m43.743 38.289c-.059.082-.114.177-.164.264l6.062 3.5 3.5-6.063a6.99 6.99 0 0 0 -9.398 2.299z" fill="#91dc5a"/><path d="m32.062 6.5a6.994 6.994 0 0 1 -9.562 2.562l3.5-6.062 3.118 1.8z" fill="#91dc5a"/><path d="m21.209 25.279c-.042.092-.1.187-.147.274l-6.062-3.5 3.5-6.063a6.991 6.991 0 0 1 2.709 9.289z" fill="#91dc5a"/><circle cx="37.821" cy="22.526" fill="#f1f2f2" r="7"/><path d="m21 33h40v6h-40z" fill="#4e901e"/><path d="m21 39h40v22h-40z" fill="#5eac24"/><path d="m54 39a7 7 0 0 0 7 7v-7z" fill="#91dc5a"/><path d="m28 39a7 7 0 0 1 -7 7v-7z" fill="#91dc5a"/><path d="m54.01 60.69c-.01.1-.01.21-.01.31h7v-7a6.99 6.99 0 0 0 -6.99 6.69z" fill="#91dc5a"/><path d="m27.99 60.69c.01.1.01.21.01.31h-7v-7a6.99 6.99 0 0 1 6.99 6.69z" fill="#91dc5a"/><circle cx="41" cy="50" fill="#f1f2f2" r="7"/><circle cx="12" cy="34" fill="#ff9811" r="7"/><path d="m12 27a7.014 7.014 0 0 0 -1 .08 6.991 6.991 0 0 1 0 13.84 7 7 0 1 0 1-13.92z" fill="#ee8700"/><path d="m54 33a6.977 6.977 0 0 0 3.4 6h3.6v-6z" fill="#7ed63e"/><path d="m28 33h-7v6h3.6a6.977 6.977 0 0 0 3.4-6z" fill="#7ed63e"/><path d="m17.264 43a2 2 0 0 0 -2-2h-10a2 2 0 0 0 0 4h10a2 2 0 0 0 2-2z" fill="#ee8700"/><path d="m3.264 59a2 2 0 0 0 2 2h10a2 2 0 0 0 0-4h-10a2 2 0 0 0 -2 2z" fill="#aa6100"/><path d="m15.264 53h-10a2 2 0 0 0 0 4h10a2 2 0 0 0 0-4z" fill="#cc7400"/><path d="m9.264 49h-4a2 2 0 0 0 0 4h10a2 2 0 0 0 0-4z" fill="#ee8700"/><path d="m17.264 47a2 2 0 0 0 -2-2h-10a2 2 0 0 0 0 4h10a2 2 0 0 0 2-2z" fill="#ff9811"/><path d="m26.264 43a2 2 0 0 0 -2-2h-10a2 2 0 1 0 0 4h10a2 2 0 0 0 2-2z" fill="#ffb655"/><path d="m12.264 59a2 2 0 0 0 2 2h10a2 2 0 0 0 0-4h-10a2 2 0 0 0 -2 2z" fill="#cc7400"/><path d="m24.264 53h-10a2 2 0 1 0 0 4h10a2 2 0 0 0 0-4z" fill="#ee8700"/><path d="m18.264 49h-4a2 2 0 1 0 0 4h10a2 2 0 0 0 0-4z" fill="#ffa733"/><path d="m26.264 47a2 2 0 0 0 -2-2h-10a2 2 0 1 0 0 4h10a2 2 0 0 0 2-2z" fill="#ffa733"/><g fill="#231f20"><path d="m54 49h-2a1 1 0 0 0 0 2h2a1 1 0 0 0 0-2z"/><path d="m30 49h-2a1 1 0 0 0 0 2h2a1 1 0 0 0 0-2z"/><path d="m42 55v-1a2 2 0 0 0 2-2v-1a2 2 0 0 0 -2-2h-2v-1h3a1 1 0 0 0 0-2h-1v-1a1 1 0 0 0 -2 0v1a2 2 0 0 0 -2 2v1a2 2 0 0 0 2 2h2v1h-3a1 1 0 0 0 0 2h1v1a1 1 0 0 0 2 0z"/><path d="m41 42a8 8 0 1 0 8 8 8.009 8.009 0 0 0 -8-8zm0 14a6 6 0 1 1 6-6 6.006 6.006 0 0 1 -6 6z"/><path d="m13 39v-1a2 2 0 0 0 2-2v-1a2 2 0 0 0 -2-2h-2v-1h3a1 1 0 0 0 0-2h-1v-1a1 1 0 0 0 -2 0v1a2 2 0 0 0 -2 2v1a2 2 0 0 0 2 2h2v1h-3a1 1 0 0 0 0 2h1v1a1 1 0 0 0 2 0z"/><path d="m61 32h-4.4l4.9-8.5a1 1 0 0 0 -.366-1.366l-34.64-20a1 1 0 0 0 -1.366.366l-11 19.05a1 1 0 0 0 .366 1.366l15.743 9.084h-9.237a1 1 0 0 0 -1 1v7h-2.726a8 8 0 1 0 -10.548 0h-1.726a2.987 2.987 0 0 0 -2.22 5 2.954 2.954 0 0 0 0 4 2.954 2.954 0 0 0 0 4 2.954 2.954 0 0 0 0 4 2.987 2.987 0 0 0 2.22 5h56a1 1 0 0 0 1-1v-28a1 1 0 0 0 -1-1zm-5.979-11.089 4.252 2.455-2.449 4.246a5.942 5.942 0 0 1 -1.8-6.7zm-28.655-16.545 4.252 2.455a6.008 6.008 0 0 1 -6.707 1.8zm-5.752 19.77-4.248-2.452 2.456-4.254a5.977 5.977 0 0 1 1.792 6.706zm1.754 1.012a7.965 7.965 0 0 0 -2.536-9.466l3.068-5.312a7.944 7.944 0 0 0 3.086.63 8.017 8.017 0 0 0 6.384-3.168l20.902 12.068a7.962 7.962 0 0 0 2.538 9.468l-1.517 2.632h-20.055zm6.566 8.852h24.132a8.036 8.036 0 0 0 1.712 4h-27.556a8.036 8.036 0 0 0 1.712-4zm-6.934 0h4.908a5.909 5.909 0 0 1 -2.616 4h-2.292zm-17 26a1 1 0 0 1 0-2h6.184a2.809 2.809 0 0 0 0 2zm0-4a1 1 0 0 1 0-2h6.184a2.809 2.809 0 0 0 0 2zm0-4a1 1 0 0 1 0-2h6.184a2.809 2.809 0 0 0 0 2zm0-4a1 1 0 0 1 0-2h6.184a2.809 2.809 0 0 0 0 2zm0-4a1 1 0 0 1 0-2h6.184a2.809 2.809 0 0 0 0 2zm1-10a6 6 0 1 1 6 6 6.006 6.006 0 0 1 -6-6zm18 26h-10a1 1 0 0 1 0-2h10a1 1 0 0 1 0 2zm0-4h-10a1 1 0 0 1 0-2h10a1 1 0 0 1 0 2zm0-4h-10a1 1 0 0 1 0-2h10a1 1 0 0 1 0 2zm0-4h-10a1 1 0 0 1 0-2h10a1 1 0 0 1 0 2zm0-4h-10a1 1 0 0 1 0-2h10a1 1 0 0 1 0 2zm36 16h-4.908a5.97 5.97 0 0 1 4.908-4.914zm0-6.933a7.95 7.95 0 0 0 -6.93 6.933h-26.254a2.908 2.908 0 0 0 -.6-3 2.954 2.954 0 0 0 0-4 2.954 2.954 0 0 0 0-4 2.954 2.954 0 0 0 0-4 2.987 2.987 0 0 0 -2.216-5h29.069a8.008 8.008 0 0 0 6.931 6.931zm0-8.157a6.008 6.008 0 0 1 -4.91-4.91h4.91zm0-6.91h-2.292a5.909 5.909 0 0 1 -2.616-4h4.908z"/><path d="m46.847 28.893 1.732 1a1 1 0 0 0 1-1.733l-1.732-1a1 1 0 1 0 -1 1.733z"/><path d="m28.794 16.161-1.732-1a1 1 0 1 0 -1 1.731l1.732 1a1 1 0 1 0 1-1.731z"/><path d="m44.749 26.526a8.008 8.008 0 1 0 -6.942 4 8.009 8.009 0 0 0 6.942-4zm-9.924 1.2a1 1 0 0 0 1.362-.369l.5-.866a2 2 0 0 0 2.732-.733l.5-.865a2 2 0 0 0 -.732-2.733l-1.732-1 .5-.866 2.6 1.5a1 1 0 0 0 1-1.732l-.866-.5.5-.866a1 1 0 0 0 -1.733-1l-.5.866a2 2 0 0 0 -2.731.732l-.5.866a2 2 0 0 0 .731 2.733l1.733 1-.5.866-2.6-1.5a1 1 0 0 0 -1 1.733l.865.5-.5.866a1 1 0 0 0 .363 1.364 5.8 5.8 0 1 1 .008.005z"/></g></g></svg>