<svg xmlns="http://www.w3.org/2000/svg" width="512" height="512" viewBox="0 0 512 512" fill="none"><path d="M331.5 259.2H180.5V237.2C180.5 195.5 214.3 161.7 256 161.7C297.7 161.7 331.5 195.5 331.5 237.2V259.2Z" fill="#F20018"></path><path d="M331.499 273.1H180.499C172.899 273.1 166.699 266.9 166.699 259.3V237.3C166.699 188.1 206.799 148 255.999 148C305.199 148 345.299 188.1 345.299 237.3V259.3C345.299 266.9 339.099 273.1 331.499 273.1ZM194.399 245.4H317.599V237.3C317.599 203.3 289.999 175.7 255.999 175.7C221.999 175.7 194.399 203.3 194.399 237.3V245.4Z" fill="#282828"></path><path d="M256 161.2C287.48 161.2 313 135.68 313 104.2C313 72.72 287.48 47.2002 256 47.2002C224.52 47.2002 199 72.72 199 104.2C199 135.68 224.52 161.2 256 161.2Z" fill="#F20018"></path><path d="M255.999 175C216.999 175 185.199 143.2 185.199 104.2C185.199 65.2004 216.999 33.4004 255.999 33.4004C294.999 33.4004 326.799 65.2004 326.799 104.2C326.799 143.3 294.999 175 255.999 175ZM255.999 61.1004C232.199 61.1004 212.899 80.4004 212.899 104.2C212.899 128 232.199 147.3 255.999 147.3C279.799 147.3 299.099 128 299.099 104.2C299.099 80.4004 279.799 61.1004 255.999 61.1004Z" fill="#282828"></path><path d="M498.199 478.6H370.999C363.399 478.6 357.199 472.4 357.199 464.8V446.3C357.199 403.6 391.899 368.9 434.599 368.9C442.199 368.9 448.399 375.1 448.399 382.7C448.399 390.3 442.199 396.5 434.599 396.5C407.199 396.5 384.799 418.8 384.799 446.3V451H484.299V446.3C484.299 442.2 483.799 438.2 482.799 434.3C480.999 426.9 485.499 419.4 492.899 417.5C500.299 415.7 507.799 420.2 509.699 427.6C511.199 433.7 511.999 439.9 511.999 446.2V464.7C511.999 472.4 505.799 478.6 498.199 478.6Z" fill="#282828"></path><path d="M434.5 396.5C400.4 396.5 372.6 368.7 372.6 334.6C372.6 300.5 400.4 272.7 434.5 272.7C468.6 272.7 496.4 300.5 496.4 334.6C496.4 368.7 468.6 396.5 434.5 396.5ZM434.5 300.4C415.7 300.4 400.3 315.7 400.3 334.6C400.3 353.5 415.6 368.8 434.5 368.8C453.4 368.8 468.7 353.5 468.7 334.6C468.7 315.7 453.4 300.4 434.5 300.4Z" fill="#282828"></path><path d="M141 478.6H13.8C6.2 478.6 0 472.4 0 464.8V446.3C0 403.6 34.7 368.9 77.4 368.9C85 368.9 91.2 375.1 91.2 382.7C91.2 390.3 85 396.5 77.4 396.5C50 396.5 27.6 418.8 27.6 446.3V451H127.1V446.3C127.1 442.2 126.6 438.2 125.6 434.3C123.8 426.9 128.3 419.4 135.7 417.5C143.1 415.7 150.6 420.2 152.5 427.6C154 433.7 154.8 439.9 154.8 446.2V464.7C154.9 472.4 148.7 478.6 141 478.6Z" fill="#282828"></path><path d="M77.4 396.5C43.3 396.5 15.5 368.7 15.5 334.6C15.5 300.5 43.3 272.7 77.4 272.7C111.5 272.7 139.3 300.5 139.3 334.6C139.3 368.7 111.5 396.5 77.4 396.5ZM77.4 300.4C58.6 300.4 43.2 315.7 43.2 334.6C43.2 353.5 58.5 368.8 77.4 368.8C96.3 368.8 111.6 353.5 111.6 334.6C111.6 315.7 96.3 300.4 77.4 300.4Z" fill="#282828"></path><path d="M255.999 390.6C248.399 390.6 242.199 384.4 242.199 376.8V306.3C242.199 298.7 248.399 292.5 255.999 292.5C263.599 292.5 269.799 298.7 269.799 306.3V376.8C269.799 384.4 263.599 390.6 255.999 390.6Z" fill="#282828"></path><path d="M349.401 390.6H162.601C155.001 390.6 148.801 384.4 148.801 376.8C148.801 369.2 155.001 363 162.601 363H349.501C357.101 363 363.301 369.2 363.301 376.8C363.301 384.4 357.101 390.6 349.401 390.6Z" fill="#282828"></path></svg>