<?xml version="1.0" encoding="utf-8"?>
<!-- Generator: Adobe Illustrator 22.1.0, SVG Export Plug-In . SVG Version: 6.00 Build 0)  -->
<svg version="1.1" id="Layer_1" xmlns="http://www.w3.org/2000/svg" xmlns:xlink="http://www.w3.org/1999/xlink" x="0px" y="0px"
	 width="344px" height="315.3px" viewBox="0 0 344 315.3" style="enable-background:new 0 0 344 315.3;" xml:space="preserve">
<style type="text/css">
	.st0{fill:#009D00;}
</style>
<path class="st0" d="M107,203.9l-0.1-0.1c3.4-37.9-11.5-74.1-29-108c76.9-40.1,115.4-60.2,115.4-60.2c2.8,4.2,5.5,8.6,8.1,13
	C164,64,126.6,79.4,89.2,94.8c-1.5,0.6-2.2,2.3-1.6,3.8c1.8,4.5,3.5,8.9,5.3,13.4C103.8,141.2,111.8,172.5,107,203.9"/>
<path class="st0" d="M210.7,47.9c0,0-40.1,16.5-120.4,49.5c13.4,33.1,24.4,67.9,20.2,103l-1.9,10.4c8.9,4.6,20,5.6,29.5,5.1
	c20.3-1.3,41.1-9.4,58.4-19.7c15.4-9.2,30.4-21.5,42-35.9C239,121.1,229.5,82.4,210.7,47.9z M197.1,166.6
	c-1.9,4.8-5.8,8.5-11.7,11.2l1.6,7.9c0.1,0.9,0.1,1.4-0.1,1.8c-0.1,0.4-0.7,0.7-1.5,0.9c-1.6,0.5-3.1,0.7-4.3,0.6s-2.3-0.5-3.1-1.2
	c-0.9-0.7-1.6-1.6-2.2-2.7c-0.6-1.2-1.2-2.6-1.6-4.2c-2.7,0.4-5.1,0.5-7.5,0.2c-2.3-0.2-4.4-0.5-6.2-1.1c-1.8-0.5-3.2-1.2-4.4-2
	c-1.2-0.8-1.9-1.6-2.1-2.6c-1.3-4.4-2.1-7.6-2.1-9.8c-0.1-2.1,0.5-3.4,1.9-3.7c0.9-0.3,2-0.2,3.3,0.3c1.3,0.5,2.7,1,4.4,1.6
	c1.6,0.6,3.5,1,5.5,1.3c2,0.2,4.2,0.1,6.5-0.7c0.9-0.3,1.8-0.7,2.7-1.1c0.9-0.4,1.6-1,2.1-1.6c0.5-0.6,1-1.3,1.2-2.1
	c0.2-0.8,0.2-1.6-0.1-2.6c-0.5-1.6-1.5-2.8-3.1-3.4c-1.6-0.6-3.5-1-5.7-1.3c-2.2-0.2-4.5-0.5-7.1-0.7c-2.5-0.2-5-0.8-7.4-1.8
	c-2.4-1-4.6-2.5-6.7-4.6c-2-2-3.5-5-4.8-8.9c-1.1-3.6-1.5-6.9-1.2-10c0.3-3,1.2-5.7,2.4-8.2c1.3-2.4,3.1-4.6,5.1-6.5
	c2.1-1.8,4.4-3.4,6.9-4.8c-0.2-1.1-0.4-2.3-0.8-3.4c-0.3-1.2-0.5-2.3-0.7-3.2c-0.1-1-0.1-1.8,0.1-2.5c0.1-0.7,0.5-1.2,1.2-1.3
	c3.4-1,5.9-0.9,7.5,0.4c1.6,1.3,3,3.4,3.9,6.4c4.9-0.7,8.9-0.1,12,1.8c3.1,1.9,5.2,4.7,6.4,8.5c1.2,3.7,1,6.9-0.5,9.5
	c-1.5,2.6-4.2,4.5-8,5.7c-1.2,0.4-2,0.5-2.4,0.4c-0.4-0.1-0.7-0.5-1-1.3c-0.2-0.7-0.5-1.5-1-2.6c-0.4-1-1-2-1.7-2.9
	c-0.7-0.9-1.6-1.5-2.7-2c-1.1-0.4-2.4-0.4-3.9,0.1c-2.1,0.7-3.8,1.9-5.1,3.7c-1.3,1.8-1.6,3.8-1,5.8c0.5,1.8,1.7,3.1,3.4,3.8
	c1.7,0.7,3.8,1.2,6.1,1.6c2.4,0.3,4.9,0.6,7.7,0.9c2.7,0.2,5.4,0.9,8,1.9c2.6,1,4.9,2.5,7,4.5c2.1,2,3.7,4.9,4.9,8.6
	C199.1,156.8,199,161.8,197.1,166.6z"/>
<path class="st0" d="M104.2,197c-0.1-0.1-0.3-0.2-0.4-0.2c-0.5-38.1-19-72.5-39.9-104.4c72.4-47.8,108.6-71.7,108.6-71.7
	c4.3,5.2,8.3,10.5,12.1,16c-36.1,18.8-72,37.6-108.1,56.4c-1.5,0.8-2.1,2.7-1.3,4.3C91,128.1,105.3,161.8,104.2,197"/>
<path d="M226.3,203c-6.2,4.8-12.8,9.3-19.7,13.5c-31.1,18.6-62.9,25.8-86.7,21.8V261c0,1.1,0.9,2,2,2h102.5c1.1,0,2-0.9,2-2
	L226.3,203L226.3,203z M167.7,266.9h10.9c1.8,0,3.3,1.5,3.3,3.3v10.9c0,1.8-1.5,3.3-3.3,3.3h-10.9c-1.8,0-3.3-1.5-3.3-3.3v-10.9
	C164.4,268.4,165.8,266.9,167.7,266.9z M239.2,78.9c16.6,2.5,29.3,10.4,35.3,23.5c10.9,23.9-3.2,58.4-32.8,87.3V277
	c0,6.2-5.1,11.3-11.3,11.3H115.9c-6.2,0-11.3-5.1-11.3-11.3v-43.4c-8.6-4.1-15.1-10.3-18.9-18.7c-6-13.2-4.4-29.6,3.2-46.5
	c-3.2,11.4-3.1,22.1,1.1,31.2c13.3,29,62.3,29.6,109.5,1.5c47.2-28.2,74.7-74.4,61.4-103.4C256.7,88.6,249.1,82.4,239.2,78.9z"/>
</svg>
